<?xml version="1.0" standalone="no"?><!DOCTYPE svg PUBLIC "-//W3C//DTD SVG 1.1//EN" "http://www.w3.org/Graphics/SVG/1.1/DTD/svg11.dtd"><svg t="1694339354296" class="icon" viewBox="0 0 1024 1024" version="1.1" xmlns="http://www.w3.org/2000/svg" p-id="19040" xmlns:xlink="http://www.w3.org/1999/xlink" width="200" height="200"><path d="M812.8 128 211.2 128C166.4 128 128 166.4 128 211.2l0 608C128 857.6 166.4 896 211.2 896l608 0c44.8 0 83.2-38.4 83.2-83.2L902.4 211.2C896 166.4 857.6 128 812.8 128zM832 812.8c0 6.4-6.4 19.2-19.2 19.2L211.2 832C198.4 832 192 825.6 192 812.8L192 211.2C192 198.4 198.4 192 211.2 192l608 0C825.6 192 832 198.4 832 211.2L832 812.8z" fill="#2c2c2c" p-id="19041"></path><path d="M768 428.8c19.2 0 32-12.8 32-32S787.2 364.8 768 364.8l-108.8 0L659.2 256c0-19.2-12.8-32-32-32S595.2 236.8 595.2 256l0 108.8L428.8 364.8 428.8 256c0-19.2-12.8-32-32-32S364.8 236.8 364.8 256l0 108.8L256 364.8C236.8 364.8 224 384 224 396.8c0 19.2 12.8 32 32 32l108.8 0 0 160L256 588.8c-19.2 0-32 12.8-32 32s12.8 32 32 32l108.8 0L364.8 768c0 19.2 12.8 32 32 32 19.2 0 32-12.8 32-32l0-108.8 160 0L588.8 768c0 19.2 12.8 32 32 32s32-12.8 32-32l0-108.8L768 659.2c19.2 0 32-12.8 32-32S787.2 595.2 768 595.2l-108.8 0L659.2 428.8 768 428.8zM595.2 595.2 428.8 595.2 428.8 428.8l160 0L588.8 595.2z" fill="#2c2c2c" p-id="19042"></path></svg>