<?xml version="1.0" standalone="no"?><!DOCTYPE svg PUBLIC "-//W3C//DTD SVG 1.1//EN" "http://www.w3.org/Graphics/SVG/1.1/DTD/svg11.dtd"><svg t="1694339924417" class="icon" viewBox="0 0 1024 1024" version="1.1" xmlns="http://www.w3.org/2000/svg" p-id="19085" xmlns:xlink="http://www.w3.org/1999/xlink" width="32" height="32"><path d="M128 1002.666667a21.333333 21.333333 0 0 1-21.333333-21.333334V42.666667a21.333333 21.333333 0 0 1 42.666666 0v938.666666a21.333333 21.333333 0 0 1-21.333333 21.333334zM384 1002.666667a21.333333 21.333333 0 0 1-21.333333-21.333334V42.666667a21.333333 21.333333 0 0 1 42.666666 0v938.666666a21.333333 21.333333 0 0 1-21.333333 21.333334zM640 1002.666667a21.333333 21.333333 0 0 1-21.333333-21.333334V42.666667a21.333333 21.333333 0 0 1 42.666666 0v938.666666a21.333333 21.333333 0 0 1-21.333333 21.333334zM896 1002.666667a21.333333 21.333333 0 0 1-21.333333-21.333334V42.666667a21.333333 21.333333 0 0 1 42.666666 0v938.666666a21.333333 21.333333 0 0 1-21.333333 21.333334z" p-id="19086"></path><path d="M981.333333 917.333333H42.666667a21.333333 21.333333 0 0 1 0-42.666666h938.666666a21.333333 21.333333 0 0 1 0 42.666666zM981.333333 661.333333H42.666667a21.333333 21.333333 0 0 1 0-42.666666h938.666666a21.333333 21.333333 0 0 1 0 42.666666zM981.333333 405.333333H42.666667a21.333333 21.333333 0 0 1 0-42.666666h938.666666a21.333333 21.333333 0 0 1 0 42.666666zM981.333333 149.333333H42.666667a21.333333 21.333333 0 0 1 0-42.666666h938.666666a21.333333 21.333333 0 0 1 0 42.666666z" p-id="19087"></path></svg>