<?xml version="1.0" standalone="no"?><!DOCTYPE svg PUBLIC "-//W3C//DTD SVG 1.1//EN" "http://www.w3.org/Graphics/SVG/1.1/DTD/svg11.dtd"><svg height="1024" node-id="1" sillyvg="true" template-height="1024" template-width="1024" version="1.1" viewBox="0 0 1024 1024" width="1024" xmlns="http://www.w3.org/2000/svg" xmlns:xlink="http://www.w3.org/1999/xlink"><defs node-id="107"><radialGradient cx="0.5" cy="0.27637437" fx="0.5" fy="0.27637437" gradientUnits="objectBoundingBox" id="radialGradient-1" node-id="5" r="0.72362566" rev="15" spreadMethod="pad"><stop offset="0" stop-color="#fff5aa"></stop><stop offset="0.27121985" stop-color="#ffeb96"></stop><stop offset="1" stop-color="#ffa60f"></stop></radialGradient><radialGradient cx="0.5" cy="0" fx="0.5" fy="0" gradientTransform="matrix(0 1 -1.04964841 0 0.5 -0.5)" gradientUnits="objectBoundingBox" id="radialGradient-2" node-id="9" r="1" rev="14" spreadMethod="pad"><stop offset="0" stop-color="#fff2a3"></stop><stop offset="1" stop-color="#c6c1c3"></stop></radialGradient><linearGradient gradientUnits="objectBoundingBox" id="linearGradient-3" node-id="12" spreadMethod="pad" x1="0.20249192" x2="0.78348863" y1="0.5" y2="0.5"><stop offset="0" stop-color="#51b627"></stop><stop offset="0.044474375" stop-color="#67c03a"></stop><stop offset="0.10048643" stop-color="#6dc641"></stop><stop offset="0.1583488" stop-color="#76c942"></stop><stop offset="0.20009455" stop-color="#8dd244"></stop><stop offset="0.33532843" stop-color="#97d646"></stop><stop offset="0.45574" stop-color="#76ca47"></stop><stop offset="0.6040068" stop-color="#67c547"></stop><stop offset="0.72351295" stop-color="#68c546"></stop><stop offset="0.7837578" stop-color="#74c73b"></stop><stop offset="0.93091774" stop-color="#78c837"></stop><stop offset="1" stop-color="#51b627"></stop></linearGradient><linearGradient gradientUnits="objectBoundingBox" id="linearGradient-4" node-id="25" spreadMethod="pad" x1="0" x2="0.95996135" y1="0.5104821" y2="0.48511285"><stop offset="0" stop-color="#90d345"></stop><stop offset="0.20581926" stop-color="#69c647"></stop><stop offset="0.3788757" stop-color="#7ccd46"></stop><stop offset="0.573635" stop-color="#94d545"></stop><stop offset="1" stop-color="#51b627"></stop><stop offset="1" stop-color="#51b627"></stop></linearGradient><radialGradient cx="0.36103773" cy="0.34017745" fx="0.36103773" fy="0.34017745" gradientTransform="matrix(0.44921632 0.74305932 -0.3515351 0.47166616 0.31843799 -0.08854563)" gradientUnits="objectBoundingBox" id="radialGradient-5" node-id="32" r="1.006746" rev="11" spreadMethod="pad"><stop offset="0" stop-color="#71df47"></stop><stop offset="1" stop-color="#56b309"></stop></radialGradient><radialGradient cx="0.6389622" cy="0.34017742" fx="0.6389622" fy="0.34017742" gradientTransform="matrix(0.4478356 0.74077515 -0.34806276 0.47344753 0.31775528 -0.08832694)" gradientUnits="objectBoundingBox" id="radialGradient-6" node-id="35" r="1.0098503" rev="10" spreadMethod="pad"><stop offset="0" stop-color="#71df47"></stop><stop offset="1" stop-color="#56b309"></stop></radialGradient><radialGradient cx="0.63896227" cy="0.34017745" fx="0.63896227" fy="0.34017745" gradientTransform="matrix(0.4478356 0.74077515 -0.34806276 0.47344753 0.31775528 -0.08832694)" gradientUnits="objectBoundingBox" id="radialGradient-7" node-id="38" r="1.0098504" rev="9" spreadMethod="pad"><stop offset="0" stop-color="#71df47"></stop><stop offset="1" stop-color="#56b309"></stop></radialGradient><radialGradient cx="0.4798118" cy="0.5" fx="0.4798118" fy="0.5" gradientTransform="matrix(0.26414044 0.90029832 -1.92457512 1.53333761 1.34507288 -0.73499319)" gradientUnits="objectBoundingBox" id="radialGradient-8" node-id="41" r="0.3638894" rev="8" spreadMethod="pad"><stop offset="0" stop-color="#6d6d6d"></stop><stop offset="0.35843056" stop-color="#555258"></stop><stop offset="0.5550486" stop-color="#302838"></stop><stop offset="1" stop-color="#241e2b"></stop></radialGradient><radialGradient cx="0.5" cy="0.67456573" fx="0.5" fy="0.67456573" gradientTransform="matrix(0 1 -1.46579253 0 1.4887738 0.174566)" gradientUnits="objectBoundingBox" id="radialGradient-9" node-id="46" r="0.46998265" rev="7" spreadMethod="pad"><stop offset="0" stop-color="#6cc747"></stop><stop offset="1" stop-color="#97d646"></stop></radialGradient><radialGradient cx="0.5" cy="0.67456573" fx="0.5" fy="0.67456573" gradientTransform="matrix(0.11677008 0.98780542 -1.26692787 0.26624996 1.29624142 0.00106012)" gradientUnits="objectBoundingBox" id="radialGradient-10" node-id="49" r="0.38049355" rev="6" spreadMethod="pad"><stop offset="0" stop-color="#5bb637"></stop><stop offset="1" stop-color="#6ec641"></stop></radialGradient><radialGradient cx="0.5" cy="0.67456573" fx="0.5" fy="0.67456573" gradientTransform="matrix(0.11677008 0.98780542 -1.26692787 0.26624996 1.29624142 0.00106012)" gradientUnits="objectBoundingBox" id="radialGradient-11" node-id="52" r="0.38049355" rev="5" spreadMethod="pad"><stop offset="0" stop-color="#5bb637"></stop><stop offset="1" stop-color="#91d445"></stop></radialGradient><radialGradient cx="0.5" cy="0.67456573" fx="0.5" fy="0.67456573" gradientTransform="matrix(0.11677008 0.98780542 -1.26692787 0.26624996 1.29624142 0.00106012)" gradientUnits="objectBoundingBox" id="radialGradient-12" node-id="55" r="0.38049355" rev="4" spreadMethod="pad"><stop offset="0" stop-color="#3eaf00"></stop><stop offset="1" stop-color="#73c73c"></stop></radialGradient><radialGradient cx="0.5" cy="0.67456573" fx="0.5" fy="0.67456573" gradientTransform="matrix(0 1 -1.46579253 0 1.4887738 0.174566)" gradientUnits="objectBoundingBox" id="radialGradient-13" node-id="58" r="0.4224651" rev="3" spreadMethod="pad"><stop offset="0" stop-color="#5eb83a"></stop><stop offset="1" stop-color="#68c547"></stop></radialGradient><radialGradient cx="0.5" cy="0.27637437" fx="0.5" fy="0.27637437" gradientTransform="matrix(0 0.875 -1 0 0.776374 -0.161126)" gradientUnits="objectBoundingBox" id="radialGradient-14" node-id="61" r="0.82700074" rev="2" spreadMethod="pad"><stop offset="0" stop-color="#fff5aa"></stop><stop offset="0.27121985" stop-color="#ffeb96"></stop><stop offset="1" stop-color="#ffa60f"></stop></radialGradient><radialGradient cx="0.5" cy="0.27637437" fx="0.5" fy="0.27637437" gradientTransform="matrix(0 0.777778 -1 0 0.776374 -0.112515)" gradientUnits="objectBoundingBox" id="radialGradient-15" node-id="65" r="0.9303758" rev="1" spreadMethod="pad"><stop offset="0" stop-color="#fff5aa"></stop><stop offset="0.27121985" stop-color="#ffeb96"></stop><stop offset="1" stop-color="#ffa60f"></stop></radialGradient></defs><path d="M 901.43 512.18 C 901.43 615.41 860.42 714.42 787.42 787.42 C 714.42 860.42 615.41 901.43 512.18 901.43 C 408.94 901.43 309.93 860.42 236.93 787.42 C 163.93 714.42 122.92 615.41 122.92 512.18 C 122.92 408.94 163.93 309.93 236.93 236.93 C 309.93 163.93 408.94 122.92 512.18 122.92 C 615.41 122.92 714.42 163.93 787.42 236.93 C 860.42 309.93 901.43 408.94 901.43 512.18 Z" fill="url(#radialGradient-1)" fill-rule="evenodd" id="椭圆形" node-id="70" stroke="none" target-height="778.5077" target-width="778.5077" target-x="122.922264" target-y="122.922264"></path><path d="M 693.20 467.89 C 693.20 490.52 613.70 508.86 515.64 508.86 C 417.58 508.86 338.09 490.52 338.09 467.89 C 338.09 445.26 417.58 426.92 515.64 426.92 C 613.70 426.92 693.20 445.26 693.20 467.89 Z" fill="url(#radialGradient-2)" fill-rule="evenodd" id="椭圆形" node-id="71" stroke="none" target-height="81.94818" target-width="355.10876" target-x="338.08887" target-y="426.91672"></path><path d="M 348.28 566.81 L 676.07 566.81 C 691.16 566.81 703.39 579.04 703.39 594.12 L 703.39 607.78 C 703.39 615.33 697.27 621.44 689.73 621.44 L 334.62 621.44 C 327.08 621.44 320.96 615.33 320.96 607.78 L 320.96 594.12 C 320.96 579.04 333.19 566.81 348.28 566.81 Z" fill="#672900" fill-rule="evenodd" id="矩形" node-id="72" stroke="none" target-height="54.63214" target-width="382.4248" target-x="320.96368" target-y="566.8082"></path><path d="M 703.39 664.51 L 703.39 800.04 C 702.35 836.42 709.85 858.22 725.89 865.43 C 796.15 897.04 849.05 902.78 849.05 917.84 C 849.05 939.62 800.49 952.36 703.39 956.06 C 636.01 960.61 578.21 962.89 529.98 962.89 C 457.65 962.89 416.04 952.57 343.36 943.82 C 270.67 935.07 182.23 938.51 182.23 921.03 C 182.23 896.32 226.19 905.71 295.12 861.95 C 312.35 851.00 320.96 828.08 320.96 793.18 L 320.96 658.38 C 322.95 622.51 342.35 590.42 373.63 566.81 L 647.26 566.81 C 681.97 591.76 703.39 626.17 703.39 664.51 Z" fill="url(#linearGradient-3)" fill-rule="evenodd" id="形状结合" node-id="73" stroke="none" target-height="396.08588" target-width="666.81934" target-x="182.22841" target-y="566.8052"></path><path d="M 725.89 865.43 C 796.15 897.04 849.05 902.78 849.05 917.84 C 849.05 939.62 800.49 952.36 703.39 956.06 C 636.01 960.61 578.21 962.89 529.98 962.89 C 509.71 962.89 480.25 964.23 464.36 949.57 C 453.28 939.34 458.98 914.62 479.97 904.55 C 536.26 877.51 713.28 859.76 725.89 865.43 Z" fill="url(#linearGradient-4)" fill-rule="evenodd" id="矩形" node-id="75" stroke="none" target-height="104.46655" target-width="395.7675" target-x="453.28024" target-y="859.76013"></path><path d="M 256.50 840.23 C 246.77 811.01 224.01 791.86 188.24 782.78 C 131.05 768.26 127.43 815.64 133.05 828.49 C 138.67 841.35 158.16 859.11 193.88 864.09 C 229.60 869.06 248.98 858.10 252.73 854.68 C 252.73 854.68 252.73 854.68 252.73 854.68 C 256.73 851.03 258.21 845.37 256.50 840.23 Z" fill="url(#radialGradient-5)" fill-rule="evenodd" id="路径-12" node-id="76" stroke="none" target-height="100.80023" target-width="130.78036" target-x="127.43101" target-y="768.26416"></path><g node-id="236"><path d="M 793.24 857.88 L 796.96 851.70 L 801.06 846.06 L 805.55 840.91 L 810.45 836.24 L 815.77 832.01 L 821.55 828.23 L 827.80 824.88 L 834.58 821.97 L 841.92 819.51 L 849.87 817.51 L 858.49 816.00 L 867.83 815.02 L 874.04 814.78 L 879.54 814.89 L 884.37 815.33 L 888.62 816.05 L 892.96 817.15 L 896.76 818.47 L 900.06 819.98 L 902.92 821.67 L 906.50 824.39 L 909.42 827.31 L 911.75 830.43 L 913.67 833.84 L 915.12 837.31 L 916.13 840.86 L 916.78 844.51 L 917.09 848.05 L 917.08 851.50 L 916.57 856.54 L 915.62 860.88 L 914.23 864.81 L 912.76 867.53 L 910.72 870.24 L 908.01 873.09 L 904.52 876.11 L 900.78 878.79 L 896.33 881.40 L 891.08 883.95 L 885.67 886.06 L 879.50 887.90 L 872.52 889.45 L 865.46 890.46 L 857.61 890.99 L 848.89 890.99 L 840.18 890.37 L 832.63 889.37 L 826.10 888.05 L 819.63 886.29 L 814.21 884.46 L 809.71 882.56 L 805.31 880.36 L 801.89 878.37 L 799.29 876.59 L 795.91 873.82 L 794.41 872.21 L 793.03 870.00 L 792.13 867.68 L 791.69 865.22 L 791.72 862.71 L 792.24 860.28 L 793.24 857.88 Z" fill="url(#radialGradient-6)" fill-rule="evenodd" group-id="1" id="路径-12备份" node-id="77" stroke="none" target-height="76.217285" target-width="125.398926" target-x="791.69104" target-y="814.77563"></path></g><g node-id="237"><path d="M 759.80 821.42 L 759.85 815.67 L 760.48 810.17 L 761.68 804.87 L 763.44 799.74 L 765.80 794.76 L 768.76 789.89 L 772.37 785.12 L 776.69 780.45 L 781.78 775.84 L 787.71 771.32 L 793.04 767.95 L 797.70 765.62 L 801.77 764.18 L 806.00 763.28 L 809.70 763.04 L 812.95 763.38 L 816.12 764.22 L 818.91 765.45 L 821.38 767.03 L 823.62 768.95 L 825.55 771.02 L 827.18 773.26 L 829.17 776.82 L 830.48 780.18 L 831.26 783.46 L 831.41 785.90 L 831.18 788.14 L 830.61 790.70 L 829.65 793.63 L 828.43 796.44 L 826.79 799.46 L 824.66 802.72 L 822.29 805.79 L 819.40 808.96 L 815.94 812.24 L 812.25 815.24 L 807.95 818.24 L 802.97 821.23 L 797.78 823.87 L 793.12 825.89 L 788.94 827.38 L 782.70 829.05 L 777.69 829.87 L 773.02 830.16 L 769.68 830.03 L 766.80 829.61 L 765.39 829.20 L 763.84 828.42 L 762.53 827.40 L 761.43 826.14 L 760.59 824.70 L 760.05 823.14 L 759.80 821.42 Z" fill="url(#radialGradient-7)" fill-rule="evenodd" group-id="2" id="路径-12备份-2" node-id="78" stroke="none" target-height="67.119385" target-width="71.61072" target-x="759.80286" target-y="763.04407"></path></g><path d="M 329.24 512.18 C 422.98 512.18 452.17 444.67 452.17 389.98 C 452.17 389.92 452.17 389.83 452.17 389.70 C 411.12 389.89 370.15 389.98 329.24 389.98 C 288.36 389.98 247.39 389.86 206.32 389.62 C 206.32 389.78 206.32 389.90 206.32 389.98 C 206.32 444.67 235.51 512.18 329.24 512.18 Z" fill="#ffffff" fill-rule="evenodd" id="椭圆形备份" node-id="79" stroke="none" target-height="122.55557" target-width="245.84453" target-x="206.32146" target-y="389.6205"></path><path d="M 698.01 512.18 C 791.74 512.18 820.93 444.67 820.93 389.98 C 820.93 389.92 820.93 389.83 820.93 389.70 C 779.89 389.89 738.91 389.98 698.01 389.98 C 657.13 389.98 616.15 389.86 575.09 389.62 C 575.09 389.78 575.09 389.90 575.09 389.98 C 575.09 444.67 604.28 512.18 698.01 512.18 Z" fill="#ffffff" fill-rule="evenodd" id="椭圆形备份-2" node-id="80" stroke="none" target-height="122.55557" target-width="245.84454" target-x="575.08826" target-y="389.6205"></path><path d="M 329.24 430.83 C 361.60 430.83 371.48 408.53 371.48 389.74 C 371.48 389.72 371.48 389.69 371.48 389.65 C 357.37 389.71 343.30 389.74 329.24 389.74 C 315.20 389.74 301.12 389.70 287.01 389.62 C 287.01 389.68 287.01 389.72 287.01 389.74 C 287.01 408.53 296.88 430.83 329.24 430.83 Z" fill="#302838" fill-rule="evenodd" id="椭圆形备份" node-id="81" stroke="none" target-height="41.212036" target-width="84.4653" target-x="287.01108" target-y="389.6205"></path><path d="M 698.01 430.83 C 730.37 430.83 740.24 408.53 740.24 389.74 C 740.24 389.72 740.24 389.69 740.24 389.65 C 726.14 389.71 712.06 389.74 698.01 389.74 C 683.96 389.74 669.89 389.70 655.78 389.62 C 655.78 389.68 655.78 389.72 655.78 389.74 C 655.78 408.53 665.65 430.83 698.01 430.83 Z" fill="#302838" fill-rule="evenodd" id="椭圆形备份-3" node-id="82" stroke="none" target-height="41.212036" target-width="84.46527" target-x="655.7779" target-y="389.6205"></path><path d="M 390.34 267.83 C 393.28 260.89 401.30 257.64 408.24 260.58 C 415.19 263.52 418.43 271.54 415.49 278.48 C 397.28 321.50 353.67 343.93 287.28 346.56 C 279.74 346.86 273.39 341.00 273.09 333.46 C 272.79 325.92 278.66 319.57 286.19 319.27 C 343.04 317.01 376.88 299.60 390.34 267.83 Z" fill="url(#radialGradient-8)" fill-rule="nonzero" id="路径-14" node-id="83" stroke="none" target-height="89.22534" target-width="145.64346" target-x="272.79013" target-y="257.63873"></path><path d="M 654.43 267.83 L 653.24 265.63 L 651.78 263.77 L 650.02 262.21 L 648.02 260.97 L 645.89 260.11 L 643.60 259.61 L 641.26 259.50 L 638.91 259.82 L 636.52 260.58 L 634.32 261.77 L 632.46 263.23 L 630.90 264.99 L 629.67 266.98 L 628.80 269.11 L 628.30 271.41 L 628.20 273.75 L 628.51 276.10 L 629.27 278.48 L 632.57 285.49 L 636.30 292.06 L 640.46 298.23 L 645.07 304.02 L 650.12 309.44 L 655.65 314.51 L 661.67 319.23 L 668.21 323.62 L 675.31 327.67 L 683.10 331.42 L 691.50 334.82 L 700.56 337.84 L 710.33 340.47 L 720.85 342.69 L 732.18 344.46 L 744.37 345.77 L 757.49 346.56 L 759.99 346.43 L 762.29 345.90 L 764.45 344.98 L 766.42 343.69 L 768.11 342.13 L 769.54 340.27 L 770.63 338.20 L 771.34 335.94 L 771.67 333.46 L 771.54 330.96 L 771.01 328.65 L 770.08 326.50 L 768.80 324.53 L 767.24 322.84 L 765.38 321.41 L 763.31 320.31 L 761.05 319.60 L 758.57 319.27 L 747.23 318.59 L 736.81 317.53 L 727.24 316.11 L 718.46 314.36 L 710.42 312.32 L 703.07 310.01 L 696.35 307.43 L 690.23 304.62 L 683.80 301.08 L 678.00 297.24 L 672.79 293.12 L 668.13 288.70 L 663.98 283.97 L 660.33 278.94 L 657.14 273.57 L 654.43 267.83 Z" fill="url(#radialGradient-8)" fill-rule="nonzero" group-id="3" id="路径-14备份" node-id="84" stroke="none" target-height="87.06061" target-width="143.4787" target-x="628.19604" target-y="259.50427"></path><path d="M 454.13 686.30 C 467.33 686.30 478.03 677.13 478.03 665.81 C 478.03 654.50 467.33 645.32 454.13 645.32 C 440.93 645.32 430.23 654.50 430.23 665.81 C 430.23 677.13 440.93 686.30 454.13 686.30 Z" fill="url(#radialGradient-9)" fill-rule="evenodd" id="椭圆形" node-id="85" stroke="none" target-height="40.97412" target-width="47.8031" target-x="430.22794" target-y="645.32495"></path><path d="M 361.94 925.31 C 377.02 925.31 389.25 916.14 389.25 904.83 C 389.25 893.51 377.02 884.34 361.94 884.34 C 346.85 884.34 334.62 893.51 334.62 904.83 C 334.62 916.14 346.85 925.31 361.94 925.31 Z" fill="url(#radialGradient-10)" fill-rule="evenodd" id="椭圆形备份-7" node-id="86" stroke="none" target-height="40.97412" target-width="54.63211" target-x="334.62173" target-y="884.34045"></path><path d="M 641.93 927.31 C 657.01 927.31 669.24 918.14 669.24 906.82 C 669.24 895.51 657.01 886.33 641.93 886.33 C 626.84 886.33 614.61 895.51 614.61 906.82 C 614.61 918.14 626.84 927.31 641.93 927.31 Z" fill="url(#radialGradient-11)" fill-rule="evenodd" id="椭圆形备份-8" node-id="87" stroke="none" target-height="40.97412" target-width="54.63214" target-x="614.6113" target-y="886.3339"></path><path d="M 409.74 811.21 C 424.83 811.21 437.06 802.04 437.06 790.73 C 437.06 779.41 424.83 770.24 409.74 770.24 C 394.65 770.24 382.42 779.41 382.42 790.73 C 382.42 802.04 394.65 811.21 409.74 811.21 Z" fill="url(#radialGradient-11)" fill-rule="evenodd" id="椭圆形备份-9" node-id="88" stroke="none" target-height="40.97412" target-width="54.63211" target-x="382.42484" target-y="770.24066"></path><path d="M 614.61 729.27 C 629.70 729.27 641.93 720.09 641.93 708.78 C 641.93 697.46 629.70 688.29 614.61 688.29 C 599.53 688.29 587.30 697.46 587.30 708.78 C 587.30 720.09 599.53 729.27 614.61 729.27 Z" fill="url(#radialGradient-12)" fill-rule="evenodd" id="椭圆形备份-10" node-id="89" stroke="none" target-height="40.97412" target-width="54.63208" target-x="587.2953" target-y="688.2925"></path><path d="M 549.74 843.37 C 562.94 843.37 573.64 834.19 573.64 822.88 C 573.64 811.56 562.94 802.39 549.74 802.39 C 536.54 802.39 525.83 811.56 525.83 822.88 C 525.83 834.19 536.54 843.37 549.74 843.37 Z" fill="url(#radialGradient-13)" fill-rule="evenodd" id="椭圆形备份-4" node-id="90" stroke="none" target-height="40.97412" target-width="47.80316" target-x="525.8341" target-y="802.3923"></path><path d="M 479.36 653.35 C 479.36 667.20 468.13 678.42 454.28 678.42 C 440.43 678.42 429.20 667.20 429.20 653.35 C 429.20 639.50 440.43 628.27 454.28 628.27 C 468.13 628.27 479.36 639.50 479.36 653.35 Z" fill="url(#radialGradient-1)" fill-rule="evenodd" id="椭圆形" node-id="91" stroke="none" target-height="50.154114" target-width="50.154053" target-x="429.20468" target-y="628.26935"></path><path d="M 564.16 800.04 L 566.12 802.89 L 567.66 805.80 L 568.81 808.79 L 569.59 811.90 L 569.99 814.95 L 570.01 817.97 L 569.65 820.96 L 568.92 823.80 L 567.82 826.50 L 566.36 829.01 L 564.53 831.27 L 562.30 833.31 L 559.79 834.97 L 557.15 836.20 L 554.36 837.01 L 551.47 837.43 L 548.55 837.45 L 545.56 837.07 L 542.63 836.32 L 539.76 835.20 L 536.94 833.69 L 534.32 831.85 L 531.87 829.65 L 529.57 827.06 L 527.61 824.21 L 526.07 821.29 L 524.92 818.30 L 524.14 815.20 L 523.74 812.15 L 523.72 809.13 L 524.08 806.13 L 524.81 803.30 L 525.91 800.60 L 527.38 798.09 L 529.21 795.82 L 531.43 793.79 L 533.94 792.12 L 536.58 790.90 L 539.37 790.08 L 542.26 789.67 L 545.18 789.65 L 548.17 790.02 L 551.10 790.77 L 553.97 791.89 L 556.79 793.41 L 559.41 795.25 L 561.86 797.45 L 564.16 800.04 Z" fill="url(#radialGradient-14)" fill-rule="evenodd" group-id="4" id="椭圆形备份-5" node-id="92" stroke="none" target-height="47.80188" target-width="46.286987" target-x="523.7218" target-y="789.64746"></path><path d="M 363.31 871.66 L 366.87 873.25 L 370.07 875.10 L 372.94 877.20 L 375.57 879.60 L 377.79 882.13 L 379.63 884.81 L 381.12 887.68 L 382.16 890.56 L 382.77 893.48 L 382.94 896.45 L 382.61 899.36 L 381.78 902.25 L 380.46 904.95 L 378.76 907.33 L 376.65 909.43 L 374.24 911.19 L 371.54 912.64 L 368.51 913.78 L 365.35 914.53 L 362.01 914.93 L 358.45 914.95 L 354.91 914.59 L 351.29 913.83 L 347.58 912.63 L 344.02 911.03 L 340.82 909.19 L 337.95 907.08 L 335.32 904.68 L 333.10 902.15 L 331.26 899.48 L 329.77 896.61 L 328.73 893.72 L 328.12 890.80 L 327.95 887.83 L 328.28 884.92 L 329.11 882.03 L 330.43 879.33 L 332.13 876.95 L 334.24 874.85 L 336.65 873.09 L 339.35 871.64 L 342.38 870.51 L 345.54 869.75 L 348.88 869.36 L 352.44 869.33 L 355.98 869.69 L 359.60 870.46 L 363.31 871.66 Z" fill="url(#radialGradient-15)" fill-rule="evenodd" group-id="5" id="椭圆形备份-6" node-id="93" stroke="none" target-height="45.621033" target-width="54.982117" target-x="327.9536" target-y="869.3313"></path><path d="M 396.14 745.52 L 397.14 779.82 L 413.50 781.19 L 423.96 781.64 L 430.15 781.49 L 433.45 781.02 L 434.96 780.42 L 435.47 779.82 L 435.79 778.47 L 436.08 776.01 L 436.18 773.26 L 436.04 769.86 L 435.58 766.35 L 434.70 762.64 L 433.36 759.04 L 431.44 755.64 L 429.84 753.58 L 427.91 751.75 L 425.62 750.13 L 421.57 748.06 L 417.22 746.49 L 412.56 745.43 L 407.52 744.89 L 402.07 744.91 L 396.14 745.52 Z" fill="#f2bb92" fill-rule="evenodd" group-id="6" id="路径-15" node-id="95" stroke="none" target-height="36.749878" target-width="40.046295" target-x="396.1351" target-y="744.8928"></path><path d="M 396.14 745.52 L 390.02 752.16 L 386.71 756.44 L 385.25 759.05 L 384.89 760.57 L 384.88 764.35 L 384.88 771.06 L 384.95 779.06 L 385.12 786.71 L 385.47 792.34 L 385.80 794.12 L 386.03 794.33 L 387.02 793.34 L 390.24 789.11 L 397.94 778.03 L 396.14 745.52 Z" fill="#e29431" fill-rule="evenodd" group-id="6" id="路径-16" node-id="96" stroke="none" target-height="48.8006" target-width="13.058014" target-x="384.8805" target-y="745.5249"></path><path d="M 398.90 776.43 L 390.18 786.90 L 386.24 792.24 L 384.97 794.53 L 384.88 795.32 L 385.42 796.32 L 386.60 797.88 L 388.15 799.33 L 390.32 800.63 L 391.94 801.18 L 393.85 801.41 L 396.14 801.27 L 403.04 800.11 L 411.96 798.34 L 416.54 797.18 L 420.66 795.88 L 424.41 794.29 L 426.95 792.66 L 429.74 790.09 L 432.18 787.31 L 434.23 784.35 L 435.61 781.56 L 436.19 779.64 L 436.37 777.95 L 436.18 776.43 L 435.75 775.75 L 434.65 775.12 L 432.46 774.56 L 428.59 774.22 L 422.30 774.27 L 412.74 774.92 L 398.90 776.43 Z" fill="#d77913" fill-rule="evenodd" group-id="6" id="路径-17" node-id="97" stroke="none" target-height="27.187561" target-width="51.489624" target-x="384.8761" target-y="774.2228"></path><path d="M 605.48 662.41 L 620.31 689.54 L 612.32 701.64 L 606.49 709.58 L 602.35 714.41 L 599.50 717.03 L 597.59 718.19 L 596.30 718.45 L 595.38 718.12 L 593.68 716.53 L 591.69 713.89 L 590.00 710.75 L 588.52 706.73 L 587.83 703.89 L 587.42 700.74 L 587.30 697.26 L 587.56 693.79 L 588.28 690.07 L 589.51 686.05 L 591.74 680.67 L 594.15 675.94 L 596.73 671.80 L 599.48 668.19 L 602.40 665.08 L 605.48 662.41 Z" fill="#f2bb92" fill-rule="evenodd" group-id="7" id="路径-18" node-id="99" stroke="none" target-height="56.032104" target-width="33.001404" target-x="587.30493" target-y="662.4144"></path><path d="M 605.48 662.41 L 611.82 665.28 L 617.29 668.21 L 621.99 671.19 L 626.00 674.22 L 629.37 677.28 L 633.32 681.53 L 637.41 686.57 L 641.65 692.47 L 646.04 699.32 L 618.25 690.43 L 615.06 686.33 L 612.52 682.39 L 610.55 678.59 L 608.94 674.59 L 607.25 669.29 L 605.48 662.41 Z" fill="#e29431" fill-rule="evenodd" group-id="7" id="路径-19" node-id="100" stroke="none" target-height="36.907837" target-width="40.558716" target-x="605.4827" target-y="662.4144"></path><path d="M 618.03 689.90 L 608.00 700.60 L 601.74 708.01 L 598.23 712.91 L 596.58 716.01 L 596.10 717.87 L 596.29 718.96 L 596.97 719.61 L 598.82 720.28 L 601.14 720.68 L 604.01 720.75 L 608.39 720.32 L 613.27 719.30 L 618.11 717.82 L 622.70 715.97 L 626.82 713.83 L 632.07 710.53 L 638.67 705.80 L 646.87 699.32 L 636.24 694.21 L 630.15 691.80 L 626.51 690.83 L 622.48 690.18 L 618.03 689.90 Z" fill="#d77913" fill-rule="evenodd" group-id="7" id="路径-20" node-id="101" stroke="none" target-height="30.846375" target-width="50.76422" target-x="596.101" target-y="689.9011"></path><path d="M 667.26 890.57 L 666.57 901.16 L 665.78 907.60 L 664.99 911.16 L 664.27 912.86 L 663.65 913.49 L 662.63 913.77 L 659.84 914.13 L 652.27 914.62 L 642.81 914.89 L 633.36 914.85 L 625.80 914.41 L 623.03 913.94 L 622.00 913.49 L 621.03 912.25 L 620.15 910.24 L 619.44 907.19 L 618.98 902.74 L 640.48 886.65 L 667.26 890.57 Z" fill="#d77913" fill-rule="evenodd" group-id="8" id="路径-26" node-id="103" stroke="none" target-height="28.233582" target-width="48.280823" target-x="618.978" target-y="886.6535"></path><path d="M 627.27 867.28 L 622.73 869.74 L 619.45 872.05 L 617.17 874.24 L 615.70 876.31 L 614.88 878.32 L 614.61 880.31 L 614.78 886.15 L 615.31 894.00 L 616.20 901.87 L 616.82 905.37 L 617.47 907.78 L 618.09 909.17 L 618.62 909.70 L 619.13 909.75 L 620.13 909.12 L 621.85 907.47 L 625.66 902.93 L 629.59 897.65 L 632.66 893.11 L 633.69 891.38 L 633.90 890.84 L 633.14 887.64 L 627.27 867.28 Z" fill="#e29431" fill-rule="evenodd" group-id="8" id="路径-25" node-id="104" stroke="none" target-height="42.46826" target-width="19.293152" target-x="614.6113" target-y="867.28485"></path><path d="M 626.60 867.28 L 625.79 875.86 L 625.63 882.38 L 625.97 887.25 L 626.67 890.77 L 627.62 893.26 L 628.75 894.95 L 630.04 896.04 L 631.97 896.94 L 635.09 897.95 L 638.57 898.80 L 642.70 899.61 L 651.30 900.83 L 655.59 901.22 L 659.37 901.40 L 662.89 901.38 L 665.34 901.13 L 666.80 900.75 L 667.47 900.31 L 667.68 899.83 L 668.13 895.84 L 668.77 889.46 L 668.83 885.87 L 668.54 882.25 L 668.08 879.89 L 667.35 877.73 L 666.36 875.76 L 665.04 874.04 L 663.33 872.64 L 661.16 871.55 L 656.70 870.18 L 651.19 869.02 L 644.46 868.10 L 636.33 867.50 L 626.60 867.28 Z" fill="#f2bb92" fill-rule="evenodd" group-id="8" id="路径-24" node-id="105" stroke="none" target-height="34.11792" target-width="43.201538" target-x="625.6305" target-y="867.28485"></path></svg>